<?xml version="1.0" encoding="UTF-8"?>
<svg id="Capa_2" data-name="Capa 2" xmlns="http://www.w3.org/2000/svg" viewBox="0 0 61.86 70.59">
  <defs>
    <style>
      .cls-1 {
        fill: #888b8e;
      }

      .cls-1, .cls-2, .cls-3, .cls-4, .cls-5, .cls-6, .cls-7 {
        stroke-width: 0px;
      }

      .cls-2 {
        fill: #888a8d;
      }

      .cls-3 {
        fill: #dfb8a4;
      }

      .cls-4 {
        fill: #e0b9a3;
      }

      .cls-5 {
        fill: #e55c15;
      }

      .cls-6 {
        fill: #e55c16;
      }

      .cls-7 {
        fill: #e55911;
      }
    </style>
  </defs>
  <g id="Capa_1-2" data-name="Capa 1">
    <g>
      <path class="cls-7" d="m.03,35.4C-.61,18.46,12.58,2.88,29.68.34c.9-.13,1.83-.1,2.73-.25,2.33-.39,3.08.58,2.89,2.86-.11,1.33-.6,1.59-1.8,1.71-11.31,1.11-19.79,6.56-25.39,16.53-7.22,12.85-2.59,31.39,9.76,39.46,4.72,3.08,9.75,5.02,15.33,5.33,2.17.12,2,1.29,2.1,2.77.14,1.98-1.06,1.87-2.38,1.83-10.93-.29-19.38-5.38-25.9-13.8C2.19,50.54-.28,43.39.03,35.4Z"/>
      <path class="cls-2" d="m61.85,35.35c.52,13.61-10.54,25.78-24.58,26.89-1.13.09-2.09.12-1.98-1.37.09-1.18-.67-2.79,1.59-2.91,10.24-.56,18.36-8.39,20.64-18.3,1.87-8.1-2.79-18.93-10.08-23.34-3.2-1.93-6.55-3.22-10.27-3.39-2.24-.1-1.94-1.61-1.89-3,.06-1.81,1.33-1.2,2.37-1.15,11.32.51,21.71,9.72,23.91,21.86.28,1.54.21,3.15.3,4.72Z"/>
      <path class="cls-2" d="m24.59,49.7c-1.66,0-3.32,0-4.99,0-.5,0-1.06.1-1.48-.09-3.4-1.57-1.54-4.65-1.87-7.06-.23-1.7.97-2.57,2.63-2.6,2.16-.04,4.32,0,6.48-.01,1.08,0,1.91.45,2.64,1.2.58.59,1.11,1.44,1.82,1.66,3.32,1.03,1.98,3.68,2.11,5.78.06,1.01-.83,1.11-1.61,1.11-1.91.02-3.82,0-5.73,0h0Z"/>
      <path class="cls-5" d="m40.2,49.63c-.99,0-1.99,0-2.98,0-4.17,0-4.85-.86-4.05-5.11.1-.53.22-.94.77-1.13.39-.14.88-.25,1.09-.55,2.84-4.04,7.07-2.73,10.9-2.85,1.96-.06,2.97.87,2.99,3.04.05,6.59.11,6.59-6.48,6.59-.75,0-1.49,0-2.24,0Z"/>
      <path class="cls-1" d="m32.01,31.04c0,2.74.01,5.48,0,8.22,0,.54.21,1.26-.55,1.47-.54.15-.89-.31-1.25-.67-2.23-2.22-4.45-4.44-6.69-6.65-.61-.6-1.23-1.22-.88-2.15.37-.99,1.32-.89,2.13-.87,3.8.11,3.38-.02,3.41-3.61,0-1.25.05-2.49,0-3.74-.08-1.69.86-2.12,2.33-2.17,1.73-.06,1.52,1.12,1.53,2.19,0,2.66,0,5.32,0,7.97Z"/>
      <path class="cls-6" d="m33.17,40.62c0-6.12.01-12.24-.01-18.36,0-1.13.52-1.45,1.53-1.38,1.12.08,1.94.43,1.93,1.75,0,1.91.08,3.83,0,5.73-.06,1.47.4,2.22,1.97,2.03.33-.04.67-.04,1,0,1.01.11,2.36-.42,2.8.96.37,1.15-.76,1.7-1.44,2.39-2.35,2.42-4.7,4.86-7.04,7.29-.24-.14-.49-.27-.73-.41Z"/>
      <path class="cls-4" d="m46.13,45.93c-.15.7-.48,1.27-1.27,1.21-.63-.05-1.04-.54-1.06-1.16-.02-.78.49-1.21,1.23-1.17.63.03.98.5,1.09,1.12Z"/>
      <path class="cls-3" d="m40.18,47.18c-.77-.15-1.15-.61-1.13-1.22.02-.74.5-1.23,1.28-1.15.62.06,1.11.46,1.07,1.13-.05.75-.6,1.11-1.22,1.24Z"/>
    </g>
  </g>
</svg>