<?xml version="1.0" encoding="UTF-8"?>
<svg id="Capa_2" data-name="Capa 2" xmlns="http://www.w3.org/2000/svg" viewBox="0 0 61.86 70.59">
  <defs>
    <style>
      .cls-1 {
        fill: #888a8d;
      }

      .cls-1, .cls-2, .cls-3, .cls-4 {
        stroke-width: 0px;
      }

      .cls-2 {
        fill: #878a8d;
      }

      .cls-3 {
        fill: #e55a11;
      }

      .cls-4 {
        fill: #e55911;
      }
    </style>
  </defs>
  <g id="Capa_1-2" data-name="Capa 1">
    <g>
      <path class="cls-4" d="m.03,35.4C-.61,18.46,12.58,2.88,29.68.34c.9-.13,1.83-.1,2.73-.25,2.33-.39,3.08.58,2.89,2.86-.11,1.33-.6,1.59-1.8,1.71-11.31,1.11-19.79,6.56-25.39,16.53-7.22,12.85-2.59,31.39,9.76,39.46,4.72,3.08,9.75,5.02,15.33,5.33,2.17.12,2,1.29,2.1,2.77.14,1.98-1.06,1.87-2.38,1.83-10.93-.29-19.38-5.38-25.9-13.8C2.19,50.54-.28,43.39.03,35.4Z"/>
      <path class="cls-1" d="m61.85,35.35c.52,13.61-10.54,25.78-24.58,26.89-1.13.09-2.09.12-1.98-1.37.09-1.18-.67-2.79,1.59-2.91,10.24-.56,18.36-8.39,20.64-18.3,1.87-8.1-2.79-18.93-10.08-23.34-3.2-1.93-6.55-3.22-10.27-3.39-2.24-.1-1.94-1.61-1.89-3,.06-1.81,1.33-1.2,2.37-1.15,11.32.51,21.71,9.72,23.91,21.86.28,1.54.21,3.15.3,4.72Z"/>
      <path class="cls-2" d="m33.26,31.58c0,3.25,0,6.12,0,8.99,0,.64-.38,1.08-.79,1.5-2,2-4.01,3.97-5.98,5.99-.94.96-1.8,1.01-2.77.04-2.99-3-5.99-5.98-8.99-8.96-.89-.89-.8-1.76.02-2.6.81-.83,1.63-1.65,2.46-2.45.88-.84,1.76-.78,2.61.08.82.82,1.65,1.64,2.46,2.47,2.77,2.82,2.74,2.79,5.48.09,1.68-1.65,3.18-3.52,5.49-5.13Z"/>
      <path class="cls-3" d="m34.45,41.04c0-3.35.02-6.23-.01-9.11,0-.68.37-1.05.79-1.47,2.81-2.83,5.6-5.67,8.41-8.51.97-.99,1.96-1.17,3-.06.68.73,1.41,1.41,2.11,2.12,1,1.01,1.03,1.96-.03,3-4.62,4.51-9.21,9.06-14.25,14.02Z"/>
    </g>
  </g>
</svg>