<?xml version="1.0" encoding="UTF-8"?>
<svg id="Capa_2" data-name="Capa 2" xmlns="http://www.w3.org/2000/svg" viewBox="0 0 61.86 70.59">
  <defs>
    <style>
      .cls-1 {
        fill: #888a8d;
      }

      .cls-1, .cls-2, .cls-3, .cls-4 {
        stroke-width: 0px;
      }

      .cls-2 {
        fill: #918c89;
      }

      .cls-3 {
        fill: #e55810;
      }

      .cls-4 {
        fill: #e55911;
      }
    </style>
  </defs>
  <g id="Capa_1-2" data-name="Capa 1">
    <g>
      <path class="cls-4" d="m.03,35.4C-.61,18.46,12.58,2.88,29.68.34c.9-.13,1.83-.1,2.73-.25,2.33-.39,3.08.58,2.89,2.86-.11,1.33-.6,1.59-1.8,1.71-11.31,1.11-19.79,6.56-25.39,16.53-7.22,12.85-2.59,31.39,9.76,39.46,4.72,3.08,9.75,5.02,15.33,5.33,2.17.12,2,1.29,2.1,2.77.14,1.98-1.06,1.87-2.38,1.83-10.93-.29-19.38-5.38-25.9-13.8C2.19,50.54-.28,43.39.03,35.4Z"/>
      <path class="cls-1" d="m61.85,35.35c.52,13.61-10.54,25.78-24.58,26.89-1.13.09-2.09.12-1.98-1.37.09-1.18-.67-2.79,1.59-2.91,10.24-.56,18.36-8.39,20.64-18.3,1.87-8.1-2.79-18.93-10.08-23.34-3.2-1.93-6.55-3.22-10.27-3.39-2.24-.1-1.94-1.61-1.89-3,.06-1.81,1.33-1.2,2.37-1.15,11.32.51,21.71,9.72,23.91,21.86.28,1.54.21,3.15.3,4.72Z"/>
      <path class="cls-2" d="m31.58,35.77c0,3.16-.04,6.31.02,9.47.03,1.51-.61,1.86-1.99,1.59-4.67-.9-8.51-5.71-8.61-10.86-.1-5.29,3.53-10.42,8.15-11.51,1.57-.37,2.54-.16,2.46,1.85-.12,3.15-.03,6.31-.03,9.47Z"/>
      <path class="cls-3" d="m33.35,35.47c0-3.15.1-6.31-.04-9.46-.08-1.92.76-1.99,2.23-1.63,4.88,1.19,8.59,6.26,8.43,11.57-.17,5.27-4.03,9.99-8.87,10.95-1.36.27-1.79-.14-1.76-1.48.05-3.32.02-6.64.02-9.96Z"/>
    </g>
  </g>
</svg>