<?xml version="1.0" encoding="UTF-8"?>
<svg id="Capa_2" data-name="Capa 2" xmlns="http://www.w3.org/2000/svg" viewBox="0 0 61.86 70.59">
  <defs>
    <style>
      .cls-1 {
        fill: #888a8d;
      }

      .cls-1, .cls-2, .cls-3, .cls-4, .cls-5, .cls-6, .cls-7, .cls-8, .cls-9, .cls-10, .cls-11, .cls-12, .cls-13, .cls-14, .cls-15 {
        stroke-width: 0px;
      }

      .cls-2 {
        fill: #e45f19;
      }

      .cls-3 {
        fill: #e36c2f;
      }

      .cls-4 {
        fill: #e2783f;
      }

      .cls-5 {
        fill: #8c8e91;
      }

      .cls-6 {
        fill: #919295;
      }

      .cls-7 {
        fill: #96989b;
      }

      .cls-8 {
        fill: #97999d;
      }

      .cls-9 {
        fill: #8b8d90;
      }

      .cls-10 {
        fill: #929396;
      }

      .cls-11 {
        fill: #939497;
      }

      .cls-12 {
        fill: #e55f18;
      }

      .cls-13 {
        fill: #e55911;
      }

      .cls-14 {
        fill: #e46a2d;
      }

      .cls-15 {
        fill: #e47031;
      }
    </style>
  </defs>
  <g id="Capa_1-2" data-name="Capa 1">
    <g>
      <path class="cls-13" d="m.03,35.4C-.61,18.46,12.58,2.88,29.68.34c.9-.13,1.83-.1,2.73-.25,2.33-.39,3.08.58,2.89,2.86-.11,1.33-.6,1.59-1.8,1.71-11.31,1.11-19.79,6.56-25.39,16.53-7.22,12.85-2.59,31.39,9.76,39.46,4.72,3.08,9.75,5.02,15.33,5.33,2.17.12,2,1.29,2.1,2.77.14,1.98-1.06,1.87-2.38,1.83-10.93-.29-19.38-5.38-25.9-13.8C2.19,50.54-.28,43.39.03,35.4Z"/>
      <path class="cls-1" d="m61.85,35.35c.52,13.61-10.54,25.78-24.58,26.89-1.13.09-2.09.12-1.98-1.37.09-1.18-.67-2.79,1.59-2.91,10.24-.56,18.36-8.39,20.64-18.3,1.87-8.1-2.79-18.93-10.08-23.34-3.2-1.93-6.55-3.22-10.27-3.39-2.24-.1-1.94-1.61-1.89-3,.06-1.81,1.33-1.2,2.37-1.15,11.32.51,21.71,9.72,23.91,21.86.28,1.54.21,3.15.3,4.72Z"/>
      <path class="cls-9" d="m29.8,46.48c-1.52.23-2.03-.34-2.49-1.9-.81-2.76-2.12-5.39-3.39-7.99-2.71-5.55,2.13-10.78,6.38-11.95.63-.17,1.4-.32,1.57.65.15.84-.17,1.43-1.1,1.64-2.34.54-4.01,1.9-4.9,4.15-.79,1.99-.43,3.92.43,5.79.9,1.95,1.88,3.87,2.8,5.8.28.6.45,1.3,1.29,1.32.96.02,1.64.3,1.5,1.45-.17,1.45-1.32.9-2.1,1.04Z"/>
      <path class="cls-2" d="m42.02,33.85c-.05,2.34-1.7,4.9-3,7.57-.31.64-1.04.92-1.71.47-.6-.4-.39-1.02-.13-1.57.67-1.43,1.39-2.84,2-4.29,1.65-3.96-.23-7.89-4.37-9-1.08-.29-2.12-.49-1.63-1.83.44-1.22,1.52-.6,2.33-.35,3.89,1.2,6.46,4.47,6.51,8.99Z"/>
      <path class="cls-12" d="m36.71,46.52c-.82,0-1.64,0-2.46,0-.62,0-1.18-.1-1.16-.93.01-.69.04-1.4.96-1.45,1.33-.07,2.69-.17,3.88.6.95.62,1.64,1.46,1.4,2.7-.23,1.19-1.03,1.94-2.16,2.14-.97.17-1.99.06-2.98.06-.66,0-1.1-.26-1.08-1.03.02-.75.46-.98,1.11-1.06.85-.1,1.79.19,2.5-1.03Z"/>
      <path class="cls-5" d="m30.13,50.47c.65.64,2.25.42,1.65,1.76-.52,1.18-1.79.8-2.6.44-1.31-.57-2.08-1.75-1.56-3.23.49-1.4,1.71-1.94,3.16-1.89.53.02.94.3,1.05.87.27,1.33-1.25,1.1-1.71,2.05Z"/>
      <path class="cls-8" d="m17.01,33.86c.91.5,2.77-.71,2.79.99.01,1.57-1.81,1.02-2.84.99-1.1-.04-3.08.7-3.07-.94.01-1.64,2.01-.63,3.12-1.04Z"/>
      <path class="cls-4" d="m48.25,35.88c-1.11-.26-2.94.46-2.98-.99-.05-1.61,1.77-.69,2.74-.95.08-.02.17-.02.24,0,1.03.36,3-.81,2.98.93-.02,1.7-2,.61-2.99,1.01Z"/>
      <path class="cls-10" d="m26.99,32.41c.35-1.89,1.53-3.14,3.33-3.87.47-.19,1.07-.28,1.36.18.35.56-.2.86-.6,1.13-1.17.78-2.31,1.58-2.6,3.12-.1.54-.18,1.3-1.01,1.02-.69-.23-.47-.95-.48-1.58Z"/>
      <path class="cls-7" d="m32.88,18.72c0,.86.03,1.36,0,1.86-.04.52-.22,1.04-.82,1.07-.76.05-.94-.56-1.01-1.16-.06-.49-.1-1-.03-1.49.13-.99-.49-2.7.88-2.72,1.72-.01.64,1.85.99,2.44Z"/>
      <path class="cls-11" d="m20.75,47.29c-.88-.03-1.32-.49-1.08-.94.74-1.38,1.79-2.57,3.26-3.2.48-.21,1.06.38.82.88-.68,1.44-2.04,2.29-3,3.25Z"/>
      <path class="cls-3" d="m45.81,46.54c-.07.45-.31.76-.76.82-.66.1-3.57-2.78-3.56-3.5,0-.49.29-.75.74-.8.74-.07,3.62,2.74,3.59,3.47Z"/>
      <path class="cls-15" d="m44.1,22.5c.95-.58,2.01-1.69,2.39.5-.77.74-1.54,1.49-2.32,2.22-.54.5-1.13,1.21-1.87.42-.63-.67.05-1.19.48-1.67.44-.49.88-.98,1.33-1.46Z"/>
      <path class="cls-6" d="m19.92,21.83c1.21.9,2.28,1.79,3,3.02.11.19-.05.74-.25.86-.75.46-1.28-.13-1.67-.62-.68-.87-2.05-1.3-1.87-2.72.02-.2.48-.34.79-.54Z"/>
      <path class="cls-14" d="m34.99,50.82c.72.19,1.9-.34,1.89,1,0,1.46-1.24,1.02-2.07,1.06-.79.04-1.83.22-1.74-1.11.09-1.36,1.21-.75,1.92-.95Z"/>
    </g>
  </g>
</svg>