<?xml version="1.0" encoding="UTF-8"?>
<svg id="Capa_2" data-name="Capa 2" xmlns="http://www.w3.org/2000/svg" viewBox="0 0 61.86 70.59">
  <defs>
    <style>
      .cls-1 {
        fill: #888a8d;
      }

      .cls-1, .cls-2, .cls-3, .cls-4 {
        stroke-width: 0px;
      }

      .cls-2 {
        fill: #938e8b;
      }

      .cls-3 {
        fill: #e55c13;
      }

      .cls-4 {
        fill: #e55911;
      }
    </style>
  </defs>
  <g id="Capa_1-2" data-name="Capa 1">
    <g>
      <path class="cls-4" d="m.03,35.4C-.61,18.46,12.58,2.88,29.68.34c.9-.13,1.83-.1,2.73-.25,2.33-.39,3.08.58,2.89,2.86-.11,1.33-.6,1.59-1.8,1.71-11.31,1.11-19.79,6.56-25.39,16.53-7.22,12.85-2.59,31.39,9.76,39.46,4.72,3.08,9.75,5.02,15.33,5.33,2.17.12,2,1.29,2.1,2.77.14,1.98-1.06,1.87-2.38,1.83-10.93-.29-19.38-5.38-25.9-13.8C2.19,50.54-.28,43.39.03,35.4Z"/>
      <path class="cls-1" d="m61.85,35.35c.52,13.61-10.54,25.78-24.58,26.89-1.13.09-2.09.12-1.98-1.37.09-1.18-.67-2.79,1.59-2.91,10.24-.56,18.36-8.39,20.64-18.3,1.87-8.1-2.79-18.93-10.08-23.34-3.2-1.93-6.55-3.22-10.27-3.39-2.24-.1-1.94-1.61-1.89-3,.06-1.81,1.33-1.2,2.37-1.15,11.32.51,21.71,9.72,23.91,21.86.28,1.54.21,3.15.3,4.72Z"/>
      <path class="cls-2" d="m30.95,29.69c.21,1.04-.41,1.76-2.08,1.73-1.19-.02-2.2.6-3.19,1.28-3.54,2.44-3.44,3.92.47,5.92,1.03.53,2.06,1.16,3.25,1.2,1.24.04,1.66.68,1.43,1.76-.25,1.16-.86,2.12-1.96,2.69-1.11-2.17-2.66-2.92-4.98-1.7-.2.11-.33-.8-.26-1.31.14-1.01-.39-1.73-1.34-1.7-1.26.04-.92,1.16-.91,1.93.06,3.54,3.25,7,7.37,8.15.77.21,1.95-.2,2.11,1.22.16,1.35-.67,2.24-1.44,3.04-.91.94-1.2.01-1.48-.72-.54-1.44-1.24-2.12-2.73-.86-1.01.86-1.71.51-1.6-.89.12-1.57-.62-2.17-2.09-1.85-1.53.33-1.88-.25-1.35-1.59.23-.57.47-1.49.05-1.61-2.76-.77-1.1-3.14-1.68-4.17-1.07-1.89-2.19-2.82.33-4.12.08-.04.12-.37.05-.47-1.32-1.77-1.36-3.54-.07-5.34-2.11-1.55-1.73-3.03.05-4.56.14-.12-.06-.85-.29-1.13-1.16-1.42-.82-1.89.96-2.03,1.2-.09,1.62-1.07,1.21-2.24-.52-1.47-.2-1.96,1.35-1.31,1.43.6,2.08-.24,2.18-1.49.12-1.55.53-2.02,1.95-.99,1.24.9,2.18.57,2.59-.97.13-.5.3-1,.94-.97.7.04.92.56,1.07,1.17.55,2.3-.09,3.25-2.54,3.75-2.89.59-6.34,4.11-6.81,6.99-.16,1-.32,2.13,1.04,2.4,1.32.26,1.73-.6,1.8-1.77.09-1.44.79-1.48,1.79-.72.95.72,1.84.82,2.51-.33.38-.64.22-1.95,1.49-1.42,1.05.43.66,1.58.82,3.01Z"/>
      <path class="cls-3" d="m40.83,38.73c-.87.37-.99.78-.88,1.19.66,2.3.07,2.66-1.97,1.44-1.11-.67-1.89-.01-2.11,1.22-.12.66-.37,1.72-1.04,1.24-.99-.69-2.41-1.19-2.63-2.68-.14-.93.41-1.29,1.27-1.49,1.8-.43,3.42-1.21,4.79-2.51,1.28-1.21,1.09-2.33-.13-3.34-1.35-1.11-2.8-2.11-4.59-2.39-.82-.13-1.4-.41-1.38-1.41.02-.88.19-1.46,1.26-1.35.29.03.69-.13.89-.35,1.26-1.36,2.1-1.77,2.28.69.06.83,1,1.76,1.74,1.1.77-.69,3.07-.1,2.21-2.4-1.2-3.22-3.43-5.24-6.69-6.13-.81-.22-1.63-.18-1.69-1.38-.05-1.16.53-1.35,1.49-1.44.41-.04.81-.53,1.16-.88,1.02-1.01,1.53-.76,1.71.61.23,1.77.97,2.32,2.68,1.28,1.17-.71,1.81-.03,1.43,1.2-.55,1.83.05,2.51,1.88,2.38,1.39-.1,1.7.41.81,1.58-1.08,1.42-.53,2.25,1.03,2.71,1.41.41,1.27,1.19.24,1.84-1.56,1-1.35,1.89-.05,2.87,1.08.82.81,1.33-.26,2-1.97,1.24-1.98,1.98.02,3.11,1.37.77,1.42,1.27.13,2.05-1.51.92-1.08,1.85.03,2.73,1.18.93,1.22,1.55-.39,1.91-1.47.33-1.98,1.06-1.02,2.47,1.01,1.49.34,1.99-1.2,1.73-1.63-.27-2.16.44-1.83,1.95.36,1.63-.23,2.16-1.64,1.27-1.4-.88-2.16-.56-2.53.95-.16.64-.38,1.74-1.03,1.25-.97-.72-2.4-1.18-2.64-2.64-.15-.92.38-1.3,1.24-1.52,2.13-.53,3.95-1.54,5.45-3.27,1.91-2.22,2.18-4.7,1.93-7.6Z"/>
    </g>
  </g>
</svg>