<?xml version="1.0" encoding="utf-8"?>
<!-- Generator: Adobe Illustrator 25.2.3, SVG Export Plug-In . SVG Version: 6.00 Build 0)  -->
<svg version="1.1" id="Icons" xmlns="http://www.w3.org/2000/svg" xmlns:xlink="http://www.w3.org/1999/xlink" x="0px" y="0px"
	 viewBox="0 0 512 512" style="enable-background:new 0 0 512 512;" xml:space="preserve">
<style type="text/css">
	.st0{fill:#ED7321;}
</style>
<path class="st0" d="M387.5,487.8H124.5c-3.8,0-6.9-3.1-6.9-6.9V65.7c0-3.8,3.1-6.9,6.9-6.9h262.9c3.8,0,6.9,3.1,6.9,6.9v415.1
	C394.4,484.7,391.3,487.8,387.5,487.8z M131.5,473.9h249.1V72.6H131.5V473.9z"/>
<path class="st0" d="M332.1,72.6H179.9c-3.8,0-6.9-3.1-6.9-6.9V31.1c0-3.8,3.1-6.9,6.9-6.9h152.2c3.8,0,6.9,3.1,6.9,6.9v34.6
	C339,69.6,335.9,72.6,332.1,72.6z M186.8,58.8h138.4V38.1H186.8V58.8z"/>
<path class="st0" d="M491.2,487.8H387.5c-3.8,0-6.9-3.1-6.9-6.9V148.8c0-3.8,3.1-6.9,6.9-6.9h103.8c3.8,0,6.9,3.1,6.9,6.9v332.1
	C498.2,484.7,495.1,487.8,491.2,487.8z M394.4,473.9h89.9V155.7h-89.9V473.9z"/>
<path class="st0" d="M124.5,487.8H20.8c-3.8,0-6.9-3.1-6.9-6.9V148.8c0-3.8,3.1-6.9,6.9-6.9h103.8c3.8,0,6.9,3.1,6.9,6.9v332.1
	C131.5,484.7,128.4,487.8,124.5,487.8z M27.7,473.9h89.9V155.7H27.7V473.9z"/>
<path class="st0" d="M326.9,164.3h-29.4c-7.6,0-13.8-6.2-13.8-13.8v-29.4c0-7.6,6.2-13.8,13.8-13.8h29.4c7.6,0,13.8,6.2,13.8,13.8
	v29.4C340.8,158.1,334.6,164.3,326.9,164.3z M297.5,121.1v29.4h29.4v-29.4H297.5z"/>
<path class="st0" d="M214.5,164.3h-29.4c-7.6,0-13.8-6.2-13.8-13.8v-29.4c0-7.6,6.2-13.8,13.8-13.8h29.4c7.6,0,13.8,6.2,13.8,13.8
	v29.4C228.3,158.1,222.1,164.3,214.5,164.3z M214.5,121.1h-29.4v29.4h29.4V121.1z"/>
<path class="st0" d="M326.9,249.9h-29.4c-7.6,0-13.8-6.2-13.8-13.8v-29.4c0-7.6,6.2-13.8,13.8-13.8h29.4c7.6,0,13.8,6.2,13.8,13.8
	v29.4C340.8,243.8,334.6,249.9,326.9,249.9z M297.5,206.7v29.4h29.4v-29.4H297.5z"/>
<path class="st0" d="M214.5,249.9h-29.4c-7.6,0-13.8-6.2-13.8-13.8v-29.4c0-7.6,6.2-13.8,13.8-13.8h29.4c7.6,0,13.8,6.2,13.8,13.8
	v29.4C228.3,243.8,222.1,249.9,214.5,249.9z M214.5,206.7h-29.4v29.4h29.4V206.7z"/>
<path class="st0" d="M326.9,335.6h-29.4c-7.6,0-13.8-6.2-13.8-13.8v-29.4c0-7.6,6.2-13.8,13.8-13.8h29.4c7.6,0,13.8,6.2,13.8,13.8
	v29.4C340.8,329.4,334.6,335.6,326.9,335.6z M297.5,292.3v29.4h29.4v-29.4H297.5z"/>
<path class="st0" d="M214.5,335.6h-29.4c-7.6,0-13.8-6.2-13.8-13.8v-29.4c0-7.6,6.2-13.8,13.8-13.8h29.4c7.6,0,13.8,6.2,13.8,13.8
	v29.4C228.3,329.4,222.1,335.6,214.5,335.6z M214.5,292.3h-29.4v29.4h29.4V292.3z"/>
<path class="st0" d="M299,487.8H213c-3.8,0-6.9-3.1-6.9-6.9V370.2c0-3.8,3.1-6.9,6.9-6.9H299c3.8,0,6.9,3.1,6.9,6.9v110.7
	C305.9,484.7,302.8,487.8,299,487.8z M220,473.9H292v-96.9H220V473.9z"/>
<path class="st0" d="M450.2,252.5h-21.6c-7.6,0-13.8-6.2-13.8-13.8v-21.6c0-7.6,6.2-13.8,13.8-13.8h21.6c7.6,0,13.8,6.2,13.8,13.8
	v21.6C464,246.3,457.8,252.5,450.2,252.5z M428.5,217.1v21.6h21.6v-21.6H428.5z"/>
<path class="st0" d="M450.2,339.5h-21.6c-7.6,0-13.8-6.2-13.8-13.8V304c0-7.6,6.2-13.8,13.8-13.8h21.6c7.6,0,13.8,6.2,13.8,13.8
	v21.6C464,333.3,457.8,339.5,450.2,339.5z M428.5,304v21.6h21.6V304H428.5z"/>
<path class="st0" d="M450.2,426.4h-21.6c-7.6,0-13.8-6.2-13.8-13.8v-21.6c0-7.6,6.2-13.8,13.8-13.8h21.6c7.6,0,13.8,6.2,13.8,13.8
	v21.6C464,420.2,457.8,426.4,450.2,426.4z M428.5,390.9v21.6h21.6v-21.6H428.5z"/>
<path class="st0" d="M83.5,252.5H61.8c-7.6,0-13.8-6.2-13.8-13.8v-21.6c0-7.6,6.2-13.8,13.8-13.8h21.6c7.6,0,13.8,6.2,13.8,13.8
	v21.6C97.3,246.3,91.1,252.5,83.5,252.5z M61.8,217.1v21.6h21.6v-21.6H61.8z"/>
<path class="st0" d="M83.5,339.5H61.8c-7.6,0-13.8-6.2-13.8-13.8V304c0-7.6,6.2-13.8,13.8-13.8h21.6c7.6,0,13.8,6.2,13.8,13.8v21.6
	C97.3,333.3,91.1,339.5,83.5,339.5z M61.8,304v21.6h21.6V304H61.8z"/>
<path class="st0" d="M83.5,426.4H61.8c-7.6,0-13.8-6.2-13.8-13.8v-21.6c0-7.6,6.2-13.8,13.8-13.8h21.6c7.6,0,13.8,6.2,13.8,13.8
	v21.6C97.3,420.2,91.1,426.4,83.5,426.4z M61.8,390.9v21.6h21.6v-21.6H61.8z"/>
</svg>
