<?xml version="1.0" encoding="UTF-8"?>
<svg id="Capa_2" data-name="Capa 2" xmlns="http://www.w3.org/2000/svg" viewBox="0 0 61.86 70.59">
  <defs>
    <style>
      .cls-1 {
        fill: #888a8d;
      }

      .cls-1, .cls-2, .cls-3, .cls-4 {
        stroke-width: 0px;
      }

      .cls-2 {
        fill: #878a8d;
      }

      .cls-3 {
        fill: #e55a12;
      }

      .cls-4 {
        fill: #e55911;
      }
    </style>
  </defs>
  <g id="Capa_1-2" data-name="Capa 1">
    <g>
      <path class="cls-4" d="m.03,35.4C-.61,18.46,12.58,2.88,29.68.34c.9-.13,1.83-.1,2.73-.25,2.33-.39,3.08.58,2.89,2.86-.11,1.33-.6,1.59-1.8,1.71-11.31,1.11-19.79,6.56-25.39,16.53-7.22,12.85-2.59,31.39,9.76,39.46,4.72,3.08,9.75,5.02,15.33,5.33,2.17.12,2,1.29,2.1,2.77.14,1.98-1.06,1.87-2.38,1.83-10.93-.29-19.38-5.38-25.9-13.8C2.19,50.54-.28,43.39.03,35.4Z"/>
      <path class="cls-1" d="m61.85,35.35c.52,13.61-10.54,25.78-24.58,26.89-1.13.09-2.09.12-1.98-1.37.09-1.18-.67-2.79,1.59-2.91,10.24-.56,18.36-8.39,20.64-18.3,1.87-8.1-2.79-18.93-10.08-23.34-3.2-1.93-6.55-3.22-10.27-3.39-2.24-.1-1.94-1.61-1.89-3,.06-1.81,1.33-1.2,2.37-1.15,11.32.51,21.71,9.72,23.91,21.86.28,1.54.21,3.15.3,4.72Z"/>
      <path class="cls-3" d="m33.36,51.68c0-1.83.11-3.67,0-5.5-.18-2.8-.2-5.18,3.22-6.4,1.95-.7,2.57-3,2.25-5.13-.33-2.22-1.62-3.95-3.8-4.52-1.5-.4-1.72-1.12-1.67-2.42.08-2.33.02-4.66.03-7,0-.64-.12-1.39.87-1.49.88-.08,1.38.26,1.64,1.14.46,1.54-.03,3.68,1.67,4.46,1.82.83,2.85-1.28,4.27-1.99,1.9-.95,2.44.73,3.48,1.51.97.73,1.05,1.41.37,2.51-2.72,4.37-2.69,4.45,2.4,5.75,1.39.35,1.72,1.09,1.59,2.31-.13,1.22.55,2.67-1.43,3.22-1.6.44-3.98-.07-4.55,1.92-.46,1.62,1.34,2.89,2.2,4.26.63,1,.25,1.61-.46,2.1-1,.7-1.49,2.42-3.22,1.75-1.63-.63-2.89-2.93-4.75-1.98-1.71.88-1.09,3.32-1.8,4.98-.1.23-.25.43-.38.65-.64-.04-1.28-.07-1.92-.11Z"/>
      <path class="cls-2" d="m31.43,24.49c0,.75-.06,1.5.01,2.25.16,1.79-.14,2.97-2.25,3.62-2.19.68-3.3,2.64-3.36,5.05-.06,2.49,1.25,4.24,3.37,5.05,1.95.75,2.39,1.9,2.26,3.76-.13,1.9,0,3.83-.04,5.74-.01.7.22,1.61-.88,1.76-1,.14-1.44-.38-1.74-1.33-1.46-4.72-1.5-4.72-5.85-2.46-2.08,1.08-2.69-1.05-3.89-1.8-1.16-.72-.35-1.55.22-2.28.3-.4.57-.82.84-1.24,1.72-2.7,1.49-3.18-1.56-4.05-1.39-.39-3.19-.23-3.28-2.63-.08-2.28.63-3.32,2.94-3.59,3.37-.4,3.96-1.67,1.73-4.28-1.67-1.95-1.49-3.03.36-4.59,1.22-1.03,2.1-1.07,3.26-.2.66.5,1.31,1.06,2.05,1.41,1.26.6,2.29.36,2.63-1.19.2-.89.38-1.79.53-2.69.16-.95.63-1.54,1.65-1.47,1.1.08.96.96.98,1.68.03,1.16,0,2.33,0,3.49h0Z"/>
    </g>
  </g>
</svg>